<svg viewBox="0 0 32 32" xml:space="preserve" xmlns="http://www.w3.org/2000/svg">
    <path d="M1.5 9a.5.5 0 0 1 0-1c14.384 0 23.066 0 25.584-3.777A.499.499 0 0 1 28 4.5V7a.5.5 0 0 1-1 0V5.826C23.441 9 14.882 9 1.5 9z" fill="#263238"/>
    <path d="M13.979 11.058c-1.78 0-3.686-.014-5.713-.027C6.113 11.016 3.851 11 1.5 11a.5.5 0 0 1 0-1c2.354 0 4.618.016 6.772.03 10.592.069 18.957.13 20.865-1.875A.5.5 0 0 1 30 8.5v2a.5.5 0 0 1-1 0V9.492c-2.408 1.338-7.611 1.566-15.021 1.566zM16 24c1.402 0 2.5-1.098 2.5-2.5 0-1.135-.771-1.962-2.291-2.458l-.113-.037C15.526 18.819 15 18.569 15 18c0-.589.411-1 1-1 .704 0 1.174.378 1.178.382a.5.5 0 1 0 .644-.764A3.017 3.017 0 0 0 16 16c-1.141 0-2 .86-2 2 0 1.374 1.344 1.813 1.785 1.955l.113.037c1.078.352 1.602.846 1.602 1.508 0 .855-.645 1.5-1.5 1.5-.928 0-1.459-.612-1.6-.8a.5.5 0 0 0-.801.599C13.811 23.082 14.608 24 16 24z" fill="#263238"/>
    <path d="M16 25a.5.5 0 0 0 .5-.5V24a.5.5 0 0 0-1 0v.5a.5.5 0 0 0 .5.5zM16 16.5a.5.5 0 0 0 .5-.5v-.5a.5.5 0 0 0-1 0v.5a.5.5 0 0 0 .5.5z" fill="#263238"/>
    <path d="M1.5 12a.5.5 0 0 0 0 1H30v14H1.5a.5.5 0 0 0 0 1h29a.5.5 0 0 0 .5-.5v-15a.5.5 0 0 0-.5-.5h-29z" fill="#263238"/>
    <path d="M1 14.499V27.5a.5.5 0 0 0 1 0V14.499a.5.5 0 0 0-1 0zM12.5 26H5.449a.501.501 0 0 1-.493-.417 2.49 2.49 0 0 0-1.624-1.929.497.497 0 0 1-.332-.47v-6.367a.5.5 0 0 1 .332-.471 2.488 2.488 0 0 0 1.624-1.929.5.5 0 0 1 .493-.417H12.5a.5.5 0 0 1 0 1H5.846A3.49 3.49 0 0 1 4 17.149v5.701A3.497 3.497 0 0 1 5.846 25H12.5a.5.5 0 0 1 0 1zM19.5 26h7.051a.501.501 0 0 0 .493-.417 2.49 2.49 0 0 1 1.624-1.929.497.497 0 0 0 .332-.47v-6.367a.5.5 0 0 0-.332-.471 2.488 2.488 0 0 1-1.624-1.929.5.5 0 0 0-.493-.417H19.5a.5.5 0 0 0 0 1h6.654A3.487 3.487 0 0 0 28 17.149v5.701a3.495 3.495 0 0 0-1.846 2.149H19.5a.5.5 0 0 0 0 1.001z" fill="#263238"/>
</svg>
