<svg viewBox="0 0 48 48" xml:space="preserve" xmlns="http://www.w3.org/2000/svg">
    <path clip-rule="evenodd" d="M46.996 24.983v.021c0 .32-.16.593-.395.776L27.662 44.719a.977.977 0 0 1-1.381-1.381l18.715-18.715v-6.619a1.001 1.001 0 0 1 2 0v6.979zm-27.19 21.592c-.032.048-.053.102-.095.144a.975.975 0 0 1-.715.281.975.975 0 0 1-.715-.281c-.042-.042-.062-.096-.095-.144L1.425 29.813c-.048-.032-.101-.053-.144-.095A.972.972 0 0 1 1 29.004a.97.97 0 0 1 .281-.715c.043-.042.096-.062.144-.095L24.221 5.398a.982.982 0 0 1 .775-.395h4.056c.133-1.502.746-2.82 1.67-3.683l.016.018a1.04 1.04 0 0 1 .758-.335c.592 0 1.072.512 1.072 1.143 0 .375-.18.691-.441.899-.479.442-.82 1.139-.934 1.958h4.803c.32 0 .594.16.775.395l5.83 5.83a.984.984 0 0 1 .395.776v11c0 .32-.16.593-.395.775L19.806 46.575zm21.19-34.19-5.381-5.381h-4.213c.176.444.424.822.725 1.1.041.033.092.053.127.092l.018-.018c1.041.973 1.725 2.508 1.725 4.254 0 .042-.01.079-.012.12 1.197.691 2.012 1.97 2.012 3.452a4 4 0 0 1-8 0 3.991 3.991 0 0 1 3.82-3.982c-.09-.888-.441-1.648-.949-2.118-.041-.033-.092-.053-.129-.092l-.016.018c-.744-.695-1.293-1.685-1.553-2.826h-3.793l-22 22 15.619 15.619 22-22V12.385zm-10.129 2.576c.248-.229.451-.537.617-.883-.855.228-1.488 1-1.488 1.925a2 2 0 0 0 4 0c0-.473-.17-.901-.445-1.244-.615 1.545-1.297 1.909-1.297 1.909a1.032 1.032 0 0 1-.758.334c-.592 0-1.07-.512-1.07-1.143 0-.373.179-.689.441-.898zM12.282 27.289a.977.977 0 0 1 1.381 0l7.049 7.049a.977.977 0 0 1-1.381 1.381l-7.049-7.049a.977.977 0 0 1 0-1.381zm4-4a.977.977 0 0 1 1.381 0l7.049 7.049a.977.977 0 0 1-1.381 1.381l-7.049-7.049a.977.977 0 0 1 0-1.381z" fill-rule="evenodd"/>
</svg>
